<?xml version="1.0" standalone="no"?>
<!DOCTYPE svg PUBLIC "-//W3C//DTD SVG 20010904//EN"
 "http://www.w3.org/TR/2001/REC-SVG-20010904/DTD/svg10.dtd">
<svg version="1.0" xmlns="http://www.w3.org/2000/svg"
 width="973.000000pt" height="649.000000pt" viewBox="0 0 973.000000 649.000000"
 preserveAspectRatio="xMidYMid meet">
<metadata>
Created by potrace 1.16, written by Peter Selinger 2001-2019
</metadata>
<g transform="translate(0.000000,649.000000) scale(0.100000,-0.100000)"
fill="#000000" stroke="none">
<path d="M2845 3978 c-7 -24 -165 -1176 -165 -1207 l0 -32 157 3 158 3 32 230
c18 127 32 231 33 233 0 1 171 2 381 2 l381 0 93 68 c52 37 94 72 95 77 0 6
-24 44 -53 85 l-53 75 -401 3 -402 2 6 33 c20 127 59 423 56 430 -2 4 -74 7
-159 7 -115 0 -156 -3 -159 -12z"/>
<path d="M3526 3981 c-6 -9 -56 -340 -56 -367 0 -11 28 -14 154 -14 103 0 157
4 162 11 6 11 53 324 54 362 0 15 -14 17 -154 17 -85 0 -157 -4 -160 -9z"/>
<path d="M4717 3882 l-197 -2 2 -518 3 -517 160 0 160 0 3 173 2 172 143 0
c152 0 253 12 298 35 34 18 93 131 110 212 13 65 7 187 -12 246 -18 55 -81
122 -142 151 -89 43 -196 53 -530 48z m302 -218 c52 -21 71 -61 71 -151 0
-103 -6 -107 -134 -111 l-106 -4 0 141 0 141 65 0 c35 0 82 -7 104 -16z"/>
<path d="M4100 3360 l0 -520 165 0 165 0 0 520 0 520 -165 0 -165 0 0 -520z"/>
<path d="M5500 3360 l0 -520 375 0 375 0 0 115 0 115 -210 0 -210 0 0 105 0
105 180 0 180 0 0 95 0 95 -180 0 -180 0 0 95 0 95 210 0 210 0 0 110 0 110
-375 0 -375 0 0 -520z"/>
<path d="M3395 3088 c-9 -53 -45 -321 -45 -335 0 -16 305 -19 315 -3 5 8 55
337 55 362 0 5 -72 8 -160 8 l-159 0 -6 -32z"/>
</g>
</svg>
